<svg width="32" height="32" viewBox="0 0 32 32" fill="none" xmlns="http://www.w3.org/2000/svg">
<path d="M10.844 8.76865C10.6329 8.0712 10.5899 8.17535 10.8162 7.24604C11.0882 6.12908 11.5648 4.4107 12.5291 3.65306C13.1402 3.17294 13.9199 4.4225 14.1306 4.84144C14.6661 5.90576 14.3175 7.07535 13.7361 8.04448C13.6984 8.10732 13.6374 8.27781 13.7778 8.13732C14.2348 7.68034 14.612 7.1475 15.073 6.69363C16.1017 5.68079 18.5529 4.46208 19.8126 5.76986C21.0473 7.05168 19.7999 9.32416 18.5406 10.0313C18.3047 10.1638 18.02 10.3096 17.7468 10.3516C17.7146 10.3566 17.5517 10.3516 17.5844 10.3609C18.847 10.7216 20.7335 10.4616 21.428 11.916C21.8584 12.8172 21.2886 14.0326 20.8338 14.808C20.3763 15.5881 19.7007 16.1317 18.7867 16.2563C17.641 16.4126 16.381 15.5919 15.579 14.8451C15.4787 14.7518 15.3695 14.4744 15.2726 14.5713C14.9995 14.8444 14.9308 16.0045 14.7991 16.3631C14.4189 17.3985 13.7399 18.3406 12.5523 18.3406C11.0007 18.3406 8.91519 16.9344 9.72065 15.1422C10.0044 14.511 10.4695 13.9355 10.974 13.4664C11.3983 13.0719 10.4798 13.5849 10.4448 13.6011C8.74951 14.3822 6.62931 14.6848 5.88628 12.5287C5.26208 10.7175 6.14182 9.22924 7.95201 8.75472C8.8777 8.51207 9.68748 8.76865 10.5934 8.76865" stroke="#F6835F" stroke-width="1.06351" stroke-linecap="round"/>
<path d="M14.2695 9.60449C14.0149 9.93037 12.9264 11.4707 13.6382 11.7724C13.9678 11.912 14.707 11.5242 14.9009 11.2385C15.2316 10.7512 14.6089 10.274 14.186 10.1894" stroke="#F6835F" stroke-width="1.06351" stroke-linecap="round"/>
<path d="M15.7744 15.4736C16.8311 19.5967 18.9802 23.5243 20.6208 27.4224" stroke="#F6835F" stroke-width="1.06351" stroke-linecap="round"/>
<path d="M20.871 27.1727C21.1764 25.1306 21.9679 23.2315 22.7279 21.319C22.9624 20.7288 24.0212 18.0015 24.6172 17.1411C25.0345 16.5388 25.1481 17.1957 25.2625 17.466C26.4491 20.2709 25.1276 23.4817 23.4242 25.7707C22.8366 26.5603 21.6407 28.2859 20.4532 28.3425C20.3068 28.3494 20.2861 28.3159 20.2861 28.1753" stroke="#F6835F" stroke-width="1.06351" stroke-linecap="round"/>
</svg>
