<svg width="58" height="76" viewBox="0 0 58 76" fill="none" xmlns="http://www.w3.org/2000/svg">
<path d="M28.1256 27.8976C26.1617 26.8588 26.4941 26.9186 23.5853 26.2666C19.507 25.3525 14.251 24.0132 10.0635 25.1205C7.45282 25.8108 8.83102 29.3829 9.45741 31.0053C10.8943 34.7267 11.4918 37.135 10.0305 41.1108C8.06475 46.459 4.4276 51.071 2.6249 56.4619C1.90029 58.6288 1.53329 61.3755 3.07673 63.2944C5.40605 66.1903 9.7682 63.9063 12.2345 62.4789C17.3614 59.5118 21.4822 55.1317 26.5387 52.0979" stroke="#F7B4A0" stroke-width="3" stroke-linecap="round"/>
<path d="M29.7126 23.5342C27.3057 34.4134 25.6822 45.4885 23.7617 56.4625" stroke="#F7B4A0" stroke-width="3" stroke-linecap="round"/>
<path d="M28.5225 30.6752C30.7599 30.0494 30.6226 30.0175 33.6358 29.7054C35.431 29.5195 37.2319 29.3687 39.0357 29.3087C40.3794 29.264 45.3062 28.8925 47.0363 30.2234C49.0245 31.7528 42.5636 39.0353 41.7467 40.7256C39.8609 44.6272 43.4877 48.8365 45.2401 52.1205C47.6896 56.711 49.9725 61.6887 49.2073 67.0198C48.8453 69.5421 47.7835 73.3288 44.8103 73.9184C41.0957 74.655 36.8678 71.321 34.5835 68.8271C31.4722 65.4302 29.1353 61.1828 27.1339 57.0575C26.3557 55.4534 25.7462 53.821 25.3486 52.0984" stroke="#F7B4A0" stroke-width="3" stroke-linecap="round"/>
<path d="M27.9271 31.2703C27.593 23.3259 24.6742 15.0666 22.0864 7.62096C21.5527 6.08544 21.002 4.54105 20.224 3.11371C19.9627 2.63443 19.5647 2.06662 19.0228 2.00068C18.672 1.95798 17.3686 3.95121 17.3257 4.02839C17.1903 4.27187 15.6962 7.63631 17.1273 7.44464C18.7066 7.23314 20.216 4.72138 21.1828 3.69778" stroke="#F7B4A0" stroke-width="3" stroke-linecap="round"/>
<path d="M28.7207 25.5177C32.857 21.2554 38.1276 18.1104 43.102 14.9494C45.5916 13.3674 48.0971 11.808 50.6508 10.3319C52.0078 9.54758 53.3829 8.78021 54.8275 8.17198C55.0885 8.06207 55.676 7.93282 55.676 8.21606C55.676 8.91435 53.574 10.6405 52.921 10.6405" stroke="#F7B4A0" stroke-width="3" stroke-linecap="round"/>
<path d="M29.3364 28.209C27.1236 39.9419 25.3425 51.7614 23.3799 63.5371" stroke="#F7B4A0" stroke-width="3" stroke-linecap="round"/>
<path d="M30.4922 29.9346C30.3389 30.8035 30.1285 31.6029 29.9071 32.476C27.8497 40.5898 25.7917 48.7034 23.7324 56.8166" stroke="#F7B4A0" stroke-width="3" stroke-linecap="round"/>
<path d="M30.6494 31.8203C28.3002 40.9795 26.0323 50.1595 23.7324 59.3312" stroke="#F7B4A0" stroke-width="3" stroke-linecap="round"/>
<path d="M30.0204 24.746C29.3645 25.5713 29.6413 24.8294 29.5488 24.2744" stroke="#F7B4A0" stroke-width="3" stroke-linecap="round"/>
<path d="M29.2344 25.2177C29.6027 25.2948 30.0392 25.5836 30.3523 25.3749C30.4193 25.3302 29.9472 24.7981 30.0728 24.7897C31.1599 24.7172 30.9138 27.0776 30.9636 27.5757" stroke="#F7B4A0" stroke-width="3" stroke-linecap="round"/>
<path d="M31.2783 30.0918C28.3543 39.9232 26.206 50.0132 23.7324 59.9607" stroke="#F7B4A0" stroke-width="3" stroke-linecap="round"/>
<path d="M33.6365 28.0479C30.6977 38.5498 27.9672 49.112 25.1475 59.646" stroke="#F7B4A0" stroke-width="3" stroke-linecap="round"/>
<path d="M31.9072 22.8604C32.1211 24.1674 32.2513 25.4725 32.3788 26.7905" stroke="#F7B4A0" stroke-width="3" stroke-linecap="round"/>
<path d="M32.2216 24.2744C32.8528 26.3193 32.0336 28.3632 31.75 30.4054" stroke="#F7B4A0" stroke-width="3" stroke-linecap="round"/>
<path d="M33.6366 24.1182C33.9834 26.3725 33.2432 28.3591 32.8506 30.5636" stroke="#F7B4A0" stroke-width="3" stroke-linecap="round"/>
<path d="M25.6191 55.5586C25.6191 57.3064 25.3556 59.012 25.1475 60.7463" stroke="#F7B4A0" stroke-width="3" stroke-linecap="round"/>
<path d="M23.2607 61.0608L24.0468 55.5586" stroke="#F7B4A0" stroke-width="3" stroke-linecap="round"/>
<path d="M25.4617 60.2744C24.7807 61.0209 24.3923 61.7709 23.8896 62.6325" stroke="#F7B4A0" stroke-width="3" stroke-linecap="round"/>
</svg>
