<svg width="40" height="53" viewBox="0 0 40 53" fill="none" xmlns="http://www.w3.org/2000/svg">
<path d="M36.8532 20.5439C26.5175 21.1153 14.6598 21.1984 5.23499 26.1682C0.673487 28.5736 2.15071 31.7851 3.3813 35.6263C4.68146 39.6846 5.90839 44.2622 7.84703 48.0756C10.2193 52.7418 15.1246 51.2875 19.2114 50.3506C24.8382 49.0605 30.6771 47.7134 36.1264 45.79C37.0121 45.4775 37.1872 45.1225 37.3377 44.1996C37.7057 41.9426 37.9496 39.6413 38.1487 37.3641C38.5243 33.068 38.5507 28.645 37.7905 24.3883C37.5521 23.0527 37.2333 21.6828 36.474 20.5439" stroke="#F7B4A0" stroke-width="3" stroke-linecap="round"/>
<path d="M4.62408 24.3355C1.96944 23.4806 4.43344 16.6563 5.65626 15.225C6.59979 14.1205 7.79753 13.8619 9.10034 13.4345C11.3694 12.6899 13.6816 12.0603 15.999 11.486C19.4258 10.6367 22.98 9.80078 26.5314 9.80078C28.4411 9.80078 30.6466 10.0026 31.9872 11.5281C33.5054 13.2558 33.2511 15.9316 33.2511 18.0792" stroke="#F7B4A0" stroke-width="3" stroke-linecap="round"/>
<path d="M5.00391 16.9419C5.91108 14.3464 8.41311 12.334 10.3965 10.6015C13.2167 8.13788 16.8805 4.71977 20.8867 4.50321C23.0376 4.38695 25.1715 5.28915 26.7638 6.70448C27.2478 7.13474 28.0704 9.08442 28.5121 8.78989" stroke="#F7B4A0" stroke-width="3" stroke-linecap="round"/>
<path d="M11.4496 8.41002C11.1653 8.45064 10.0629 8.83454 10.7439 8.11512C12.8247 5.91717 15.8272 3.33423 18.7064 2.30125C19.9586 1.85199 20.2267 3.03507 21.1183 3.48088" stroke="#F7B4A0" stroke-width="3" stroke-linecap="round"/>
<path d="M9.87988 26.4102C10.8052 30.8054 11.9858 35.1496 13.0593 39.5095" stroke="#F7B4A0" stroke-width="3" stroke-linecap="round"/>
<path d="M21.1992 24.8848C21.6605 29.3222 22.4324 33.7029 23.1069 38.1113" stroke="#F7B4A0" stroke-width="3" stroke-linecap="round"/>
<path d="M30.8645 20.3057C30.8438 24.8419 30.7831 29.3778 30.7373 33.9138" stroke="#F7B4A0" stroke-width="3" stroke-linecap="round"/>
</svg>
