<svg width="69" height="84" viewBox="0 0 69 84" fill="none" xmlns="http://www.w3.org/2000/svg">
<path d="M18.855 19.1778C18.1742 16.9292 18.0356 17.265 18.7652 14.2688C19.642 10.6675 21.1789 5.12731 24.2878 2.6846C26.258 1.13663 28.7717 5.16533 29.4513 6.51605C31.1779 9.94753 30.0539 13.7184 28.1792 16.843C28.0576 17.0456 27.8609 17.5953 28.3139 17.1423C29.7872 15.669 31.0034 13.9511 32.4896 12.4877C35.8061 9.2222 43.7091 5.29295 47.7705 9.50937C51.7513 13.6421 47.7297 20.9688 43.6696 23.2487C42.9089 23.6759 41.9909 24.146 41.1103 24.2814C41.0063 24.2974 40.4812 24.2813 40.5865 24.3114C44.6575 25.4745 50.7396 24.6359 52.9789 29.3252C54.3664 32.2309 52.5294 36.1495 51.0631 38.6494C49.5879 41.1646 47.4097 42.9171 44.4628 43.319C40.7691 43.8227 36.7067 41.1766 34.1209 38.7691C33.7977 38.4682 33.4454 37.5738 33.1331 37.8861C32.2526 38.7666 32.0311 42.5068 31.6065 43.6632C30.3808 47.0013 28.1916 50.039 24.3627 50.039C19.36 50.039 12.6361 45.5051 15.233 39.727C16.1478 37.6917 17.6475 35.8364 19.274 34.324C20.642 33.052 17.6807 34.7061 17.5678 34.7581C12.102 37.2766 5.26622 38.252 2.87061 31.3008C0.858112 25.4612 3.6945 20.6628 9.53075 19.1329C12.5153 18.3506 15.1261 19.1778 18.0468 19.1778" stroke="#F7B4A0" stroke-width="3" stroke-linecap="round"/>
<path d="M29.9008 21.8711C29.08 22.9217 25.5705 27.8881 27.8654 28.8605C28.928 29.3108 31.3113 28.0604 31.9363 27.1393C33.0025 25.5681 30.9949 24.0296 29.6314 23.7569" stroke="#F7B4A0" stroke-width="3" stroke-linecap="round"/>
<path d="M34.75 40.7969C38.1568 54.09 45.0858 66.7532 50.3751 79.321" stroke="#F7B4A0" stroke-width="3" stroke-linecap="round"/>
<path d="M51.1827 78.5128C52.1672 71.9289 54.7191 65.8062 57.1693 59.6399C57.9254 57.7372 61.3391 48.9439 63.2607 46.1699C64.606 44.228 64.9723 46.346 65.3411 47.2176C69.1671 56.2608 64.9064 66.6129 59.4143 73.9929C57.52 76.5384 53.6642 82.1021 49.8357 82.2844C49.3634 82.3069 49.2969 82.1987 49.2969 81.7456" stroke="#F7B4A0" stroke-width="3" stroke-linecap="round"/>
</svg>
