<svg width="38" height="41" viewBox="0 0 38 41" fill="none" xmlns="http://www.w3.org/2000/svg">
<path d="M31.1013 38.9673C27.8842 37.9593 28.2096 38.1318 23.8996 36.1314C19.3152 34.0038 11.5392 30.1891 7.3332 27.3734C5.89867 26.4131 1.59472 23.7899 2.03089 20.8576C2.14454 20.0936 2.92465 19.5857 3.48177 19.0506C4.75541 17.8273 5.91915 17.245 7.63657 16.8479C13.5375 15.4836 19.4802 18.8682 24.2162 21.9919" stroke="#F7B4A0" stroke-width="3" stroke-linecap="round"/>
<path d="M22.4063 22.3316C22.3764 22.1553 22.3087 21.9817 22.3148 21.803C22.4227 18.6437 23.0457 15.2747 23.5652 12.1964C23.9675 9.8131 24.5458 6.06637 25.573 3.65208C26.1836 2.21673 27.0599 1.99323 28.4549 2.00015C30.3731 2.00967 32.2877 2.88072 33.5581 4.31285C35.7591 6.79392 35.9691 10.2766 35.7488 13.4213C35.5141 16.7723 34.8088 20.0437 34.1986 23.338C33.7166 25.9396 33.4672 28.5699 33.0498 31.1808C32.6466 33.7032 31.8593 36.1602 31.647 38.7086" stroke="#F7B4A0" stroke-width="3" stroke-linecap="round"/>
</svg>
