<svg width="65" height="65" viewBox="0 0 65 65" fill="none" xmlns="http://www.w3.org/2000/svg">
<path d="M41.5073 12V36.9483" stroke="#F6835F" stroke-width="3" stroke-linecap="round"/>
<path d="M45.7078 20.5273C43.7244 23.1179 41.5405 25.5647 39.4141 28.0373C38.8293 28.7174 38.2638 29.4161 37.6391 30.0598C37.6272 30.0721 37.6327 30.0256 37.625 30.0103" stroke="#F6835F" stroke-width="3" stroke-linecap="round"/>
<path d="M37.0522 20.1455C40.0873 23.2597 43.2004 26.3018 46.323 29.3279C46.7128 29.7057 46.6718 29.78 46.9807 29.883" stroke="#F6835F" stroke-width="3" stroke-linecap="round"/>
<path d="M30.2827 25.1719C35.1635 25.4693 40.0931 25.2831 44.979 25.2454C47.6645 25.2247 50.3502 25.1719 53.0359 25.1719C53.5351 25.1719 54.0344 25.1719 54.5336 25.1719" stroke="#F6835F" stroke-width="3" stroke-linecap="round"/>
<path d="M25.5562 37C25.8012 42.3541 25.8477 47.7203 25.9792 53.0777" stroke="#F6835F" stroke-width="3" stroke-linecap="round"/>
<path d="M29.787 41.0898C27.5805 43.3266 25.4113 45.5992 23.229 47.8594" stroke="#F6835F" stroke-width="3" stroke-linecap="round"/>
<path d="M22.3125 41.8662C24.7273 44.0783 27.0655 46.3754 29.4346 48.6358" stroke="#F6835F" stroke-width="3" stroke-linecap="round"/>
<path d="M18.2827 45.3896C20.4099 45.4587 22.5532 45.3208 24.6767 45.2402C27.0822 45.1489 29.4886 45.0325 31.8958 44.9912C32.4159 44.9823 32.9415 45.0059 33.4574 44.9414" stroke="#F6835F" stroke-width="3" stroke-linecap="round"/>
<path d="M13.8521 21.0439C14.0019 24.0469 14.1807 27.0463 14.3626 30.0473" stroke="#F6835F" stroke-width="3" stroke-linecap="round"/>
<path d="M10 25.4988C12.5095 25.5859 15.0233 25.1921 17.5183 24.9883" stroke="#F6835F" stroke-width="3" stroke-linecap="round"/>
</svg>
