<svg width="65" height="65" viewBox="0 0 65 65" fill="none" xmlns="http://www.w3.org/2000/svg">
<path d="M40.4525 18C36.8129 21.5443 33.0316 24.9436 29.3185 28.4098C27.1607 30.424 22.1806 34.9797 19.8564 37.579C18.3183 39.2993 18.6697 38.9992 18.1381 40.6843C17.5701 42.4847 16.1909 44.4299 16.05 46.3322C16.0239 46.6842 15.9519 47.26 16.05 47.6036C16.1211 47.8525 22.5635 47.5677 23.3623 47.5419C23.7771 47.5286 24.1871 47.2171 24.5951 47.1259C25.8043 46.8554 25.7749 46.8024 26.7372 45.816C29.6191 42.8616 32.739 40.1981 35.4981 37.1167C37.3735 35.0222 39.4153 33.0724 41.616 31.3224C43.0846 30.1546 44.4188 28.8335 45.8925 27.6701C46.4429 27.2356 46.7302 26.7168 47.1869 26.26C48.1205 25.3265 44.7513 21.5427 44.1511 20.6968C43.1525 19.2897 41.7635 18.9455 40.1752 18.4161" stroke="#F6835F" stroke-width="3" stroke-linecap="round"/>
<path d="M36.0508 23.1084C36.9665 23.6881 36.7412 23.4988 37.8121 24.5363C39.3073 25.9848 40.7487 27.5115 42.1171 29.0807C42.4324 29.4421 42.4378 29.3593 42.4378 29.6493" stroke="#F6835F" stroke-width="3" stroke-linecap="round"/>
<path d="M39.2604 19.6113C38.8548 20.8004 38.5908 22.0269 38.2759 23.2418" stroke="#F6835F" stroke-width="3" stroke-linecap="round"/>
<path d="M43.2601 20.2891C42.6656 22.4552 41.9969 24.5984 41.3525 26.75" stroke="#F6835F" stroke-width="3" stroke-linecap="round"/>
<path d="M45.7828 23.6729C45.6155 24.8366 45.2358 25.9276 44.9214 27.0572" stroke="#F6835F" stroke-width="3" stroke-linecap="round"/>
</svg>
