<svg width="65" height="65" viewBox="0 0 65 65" fill="none" xmlns="http://www.w3.org/2000/svg">
<path d="M24.7412 26.2471C24.8535 26.9084 24.8872 27.4394 24.9296 28.1664C25.3216 34.8849 25.6001 41.6107 25.9325 48.3322" stroke="#F6835F" stroke-width="3" stroke-linecap="round"/>
<path d="M24.8325 26.2471C26.0484 26.6524 27.9179 26.3473 29.0377 26.3082C30.6471 26.252 35.5348 26.0632 37.1631 26.0027C37.9675 25.9729 38.7718 25.9414 39.5763 25.9162C40.4611 25.8885 40.1646 25.7685 40.4672 25.9315C40.7788 26.0992 41.1601 26.1555 41.5109 26.1555" stroke="#F6835F" stroke-width="3" stroke-linecap="round"/>
<path d="M41.6025 25.6055C41.6025 29.2289 41.1879 32.9212 40.961 36.5258C40.7373 40.0805 40.7786 43.905 40.233 47.4513C40.2076 47.6165 40.2279 47.7985 40.2279 47.9655" stroke="#F6835F" stroke-width="3" stroke-linecap="round"/>
<path d="M25.8408 48.9735C29.5539 48.9735 33.267 48.9766 36.9801 48.9735C37.9949 48.9726 39.0114 49.0119 40.0246 48.9531C40.0413 48.9521 40.044 48.8836 40.0449 48.8818" stroke="#F6835F" stroke-width="3" stroke-linecap="round"/>
<path d="M29.2314 26.8887C29.4592 32.4917 29.9092 38.0857 30.3006 43.679C30.4027 45.1385 30.606 46.5944 30.606 48.0574" stroke="#F6835F" stroke-width="3" stroke-linecap="round"/>
<path d="M35.5547 27.7139C35.6111 32.3588 35.4076 37.0105 35.29 41.6532C35.2505 43.2132 35.3455 44.9557 35.1423 46.5407C35.092 46.9335 35.1132 47.3122 35.0049 47.6912" stroke="#F6835F" stroke-width="3" stroke-linecap="round"/>
<path d="M23 22.7652C29.1343 21.395 35.3002 19.7221 41.3279 18" stroke="#F6835F" stroke-width="3" stroke-linecap="round"/>
</svg>
