<svg width="65" height="65" viewBox="0 0 65 65" fill="none" xmlns="http://www.w3.org/2000/svg">
<path d="M31.3613 17C31.5166 25.5414 31.5249 34.0856 31.5592 42.6286" stroke="#F6835F" stroke-width="3" stroke-linecap="round"/>
<path d="M20.5757 34.0201C23.8714 36.5345 26.9931 39.2672 30.1631 41.9363C30.9179 42.5719 31.6024 43.3109 32.4499 43.8164C32.4763 43.8321 32.4652 43.7566 32.4774 43.7284C32.5856 43.4796 32.7352 43.299 32.9062 43.0687C35.1442 40.0553 37.7946 37.2331 39.7504 34.0201C39.8935 33.7851 40.6397 33.019 40.4651 32.9316" stroke="#F6835F" stroke-width="3" stroke-linecap="round"/>
<path d="M14 41.7236C14 43.4496 14.2014 45.1883 14.3163 46.9089C14.3301 47.1151 14.4067 47.9367 14.4067 48.3069C14.4067 48.4108 14.6078 48.3686 14.7117 48.3718C17.4297 48.458 20.1604 48.3831 22.8793 48.3831C26.05 48.3831 29.2207 48.3831 32.3913 48.3831C35.963 48.3831 39.5347 48.3831 43.1064 48.3831C45.6329 48.3831 47.9842 48.3831 50.3589 48.2485C50.9102 48.1233 50.5 41.7235 50.5 41.7235" stroke="#F6835F" stroke-width="3" stroke-linecap="round"/>
</svg>
