<svg width="65" height="65" viewBox="0 0 65 65" fill="none" xmlns="http://www.w3.org/2000/svg">
<path d="M23.221 38.2061C22.6152 41.4887 22.5507 44.8727 22.27 48.1909" stroke="#F6835F" stroke-width="3" stroke-linecap="round"/>
<path d="M22.7456 49.2372C29.3968 46.3539 36.3699 44.2576 43.0429 41.4131C45.2765 40.4609 47.4989 39.486 49.7629 38.6078C50.3525 38.3791 51.4646 38.2054 51.8444 37.6357" stroke="#F6835F" stroke-width="3" stroke-linecap="round"/>
<path d="M52.605 27.0801C52.605 30.2969 51.4639 33.4679 51.4639 36.6846" stroke="#F6835F" stroke-width="3" stroke-linecap="round"/>
<path d="M23.9033 23.1699C27.0395 26.5965 30.4324 29.7961 33.6846 33.1134C33.8716 33.3041 34.1231 33.6492 34.3478 33.7946C34.516 33.9034 34.8667 34.1285 34.8667 34.3604C34.8667 36.4334 34.9436 38.515 34.8379 40.5989C34.7956 41.4325 34.8532 42.2434 34.8667 43.0713C34.8687 43.1932 34.9169 43.4174 34.8019 43.4749" stroke="#F6835F" stroke-width="3" stroke-linecap="round"/>
<path d="M32.1961 20.4736C32.2953 21.106 32.0281 21.7977 31.8835 22.3917C31.4478 24.1819 30.9917 25.9672 30.5415 27.7537" stroke="#F6835F" stroke-width="3" stroke-linecap="round"/>
<path d="M41.5718 17.5508C40.0593 22.5967 38.1687 27.5372 36.3905 32.494C36.2109 32.9947 35.9076 33.6331 35.8359 34.2068" stroke="#F6835F" stroke-width="3" stroke-linecap="round"/>
<path d="M48.0799 24.3896C47.2194 26.2699 46.4517 28.1908 45.6103 30.0795C45.5502 30.2144 45.4819 30.5608 45.3774 30.4564" stroke="#F6835F" stroke-width="3" stroke-linecap="round"/>
<path d="M45.5427 30.126C44.5092 33.7303 43.5881 37.3687 42.6196 40.991" stroke="#F6835F" stroke-width="3" stroke-linecap="round"/>
<path d="M50.396 29.0225C50.4532 29.3799 50.4307 29.4175 50.3225 29.8773C49.8161 32.0296 49.2369 34.1659 48.6924 36.3087C48.5907 36.7092 48.1899 37.8425 48.1899 38.4535" stroke="#F6835F" stroke-width="3" stroke-linecap="round"/>
<path d="M51.3888 26.8164C51.0897 27.3215 50.767 27.8108 50.4512 28.3055" stroke="#F6835F" stroke-width="3" stroke-linecap="round"/>
<path d="M44.7706 20.5293C44.5969 21.5718 44.084 22.6955 43.7411 23.6423C42.6522 26.6497 41.5572 29.6554 40.4688 32.6628" stroke="#F6835F" stroke-width="3" stroke-linecap="round"/>
<path d="M40.0828 32.8281C39.466 35.4154 39.0038 38.0149 38.6243 40.6475C38.5417 41.2206 38.4866 41.8018 38.373 42.3695" stroke="#F6835F" stroke-width="3" stroke-linecap="round"/>
<path d="M37.0494 19.3711C37.03 20.2271 36.2714 21.7067 36.0505 22.2819C34.9334 25.1915 33.8102 28.0989 32.6924 31.0082" stroke="#F6835F" stroke-width="3" stroke-linecap="round"/>
<path d="M28.7215 22.0732C28.0033 23.1641 27.5917 24.4149 27.0669 25.603" stroke="#F6835F" stroke-width="3" stroke-linecap="round"/>
<path d="M51.2673 26.4668C50.466 27.7714 49.5775 29.0244 48.7271 30.2968" stroke="#F6835F" stroke-width="3" stroke-linecap="round"/>
<path d="M48.5317 31.1953C47.7857 33.7108 47.1909 36.275 46.5386 38.8162" stroke="#F6835F" stroke-width="3" stroke-linecap="round"/>
<path d="M53.8076 28.9678C53.4745 31.5494 53.0752 34.1236 52.7524 36.7059" stroke="#F6835F" stroke-width="3" stroke-linecap="round"/>
<path d="M23.126 39.0618C31.5897 36.4732 39.9769 33.5082 48.3259 30.5667C48.8594 30.3787 50.0784 30.1568 50.418 29.6475" stroke="#F6835F" stroke-width="3" stroke-linecap="round"/>
<path d="M41.9546 17.1904C45.5202 20.6446 49.1107 24.0753 52.7319 27.4711C53.045 27.7648 53.2678 28.0935 53.6512 28.2213" stroke="#F6835F" stroke-width="3" stroke-linecap="round"/>
<path d="M12.4755 26.7949C11.9666 29.4665 12.134 32.3548 12 35.0681" stroke="#F6835F" stroke-width="3" stroke-linecap="round"/>
<path d="M12 34.8779C14.0534 37.5888 16.3758 40.6928 18.5087 43.373C25.1025 51.6591 17.2153 41.6552 22.7456 48.3813" stroke="#F6835F" stroke-width="3" stroke-linecap="round"/>
<path d="M13.7114 26.5094C23.0956 23.3443 32.4768 20.1702 41.8593 17" stroke="#F6835F" stroke-width="3" stroke-linecap="round"/>
<path d="M13.4263 27.0801C14.025 28.0859 14.8609 28.9695 15.6029 29.8589C17.7474 32.43 19.9818 34.9448 22.0376 37.588C22.2187 37.8209 22.3916 38.0556 22.5553 38.3012" stroke="#F6835F" stroke-width="3" stroke-linecap="round"/>
</svg>
