<svg width="65" height="65" viewBox="0 0 65 65" fill="none" xmlns="http://www.w3.org/2000/svg">
<path d="M37 18C32.5744 19.8669 27.7016 20.9834 23 22" stroke="#F6835F" stroke-width="3" stroke-linecap="round"/>
<path d="M23 22C21.7698 29.3572 19.9086 36.6429 18.2542 43.9324C17.8071 45.9023 17.4894 47.277 17 49" stroke="#F6835F" stroke-width="3" stroke-linecap="round"/>
<path d="M17 49C23.965 46.7814 30.6861 43.6828 37.4202 40.8683C38.5279 40.4053 41.7609 38.8638 43.5 38" stroke="#F6835F" stroke-width="3" stroke-linecap="round"/>
<path d="M43.2747 37C42.3951 32.9545 43.8057 28.9433 45 25" stroke="#F6835F" stroke-width="3" stroke-linecap="round"/>
<path d="M37 18C39.1373 21.0149 42.1294 23.1684 45 25" stroke="#F6835F" stroke-width="3" stroke-linecap="round"/>
<path d="M40 23C36.7466 27.0571 33 31 29.5 34.5" stroke="#F6835F" stroke-width="3" stroke-linecap="round"/>
<path d="M40 16C42.3285 17.8684 44.4859 19.9364 46.8019 21.8188C46.8851 21.8865 46.9319 21.9103 47 22" stroke="#F6835F" stroke-width="3" stroke-linecap="round"/>
</svg>
